0
SECTION
2
HEADER
9
$INSUNITS
70
4
9
$ACADVER
1
AC1014
9
$HANDSEED
5
FFFF
0
ENDSEC
0
SECTION
2
TABLES
0
TABLE
2
VPORT
5
8
100
AcDbSymbolTable
0
ENDTAB
0
TABLE
2
LTYPE
5
5
100
AcDbSymbolTable
0
LTYPE
5
14
100
AcDbSymbolTableRecord
100
AcDbLinetypeTableRecord
2
BYBLOCK
70
0
0
LTYPE
5
15
100
AcDbSymbolTableRecord
100
AcDbLinetypeTableRecord
2
BYLAYER
70
0
0
LTYPE
5
16
100
AcDbSymbolTableRecord
100
AcDbLinetypeTableRecord
2
DASHED
70
0
3
Dashed __ __ __ __ __ __ __ __ __ __ __ __ __ _
72
65
73
2
40
0.75
49
0.5
74
0
49
-0.25
74
0
0
ENDTAB
0
TABLE
2
LAYER
5
2
100
AcDbSymbolTable
70
2
0
LAYER
5
50
100
AcDbSymbolTableRecord
100
AcDbLayerTableRecord
2
0
70
0
62
7
6
CONTINUOUS
0
ENDTAB
0
TABLE
2
STYLE
5
3
100
AcDbSymbolTable
70
1
0
STYLE
5
11
100
AcDbSymbolTableRecord
100
AcDbTextStyleTableRecord
2
STANDARD
70
0
0
ENDTAB
0
TABLE
2
VIEW
5
6
100
AcDbSymbolTable
70
0
0
ENDTAB
0
TABLE
2
UCS
5
7
100
AcDbSymbolTable
70
0
0
ENDTAB
0
TABLE
2
APPID
5
9
100
AcDbSymbolTable
70
2
0
APPID
5
12
100
AcDbSymbolTableRecord
100
AcDbRegAppTableRecord
2
ACAD
70
0
0
ENDTAB
0
TABLE
2
DIMSTYLE
5
A
100
AcDbSymbolTable
70
1
0
ENDTAB
0
TABLE
2
BLOCK_RECORD
5
1
100
AcDbSymbolTable
70
1
0
BLOCK_RECORD
5
1F
100
AcDbSymbolTableRecord
100
AcDbBlockTableRecord
2
*MODEL_SPACE
0
BLOCK_RECORD
5
1B
100
AcDbSymbolTableRecord
100
AcDbBlockTableRecord
2
*PAPER_SPACE
0
ENDTAB
0
ENDSEC
0
SECTION
2
BLOCKS
0
BLOCK
5
20
100
AcDbEntity
100
AcDbBlockBegin
2
*MODEL_SPACE
0
ENDBLK
5
21
100
AcDbEntity
100
AcDbBlockEnd
0
BLOCK
5
1C
100
AcDbEntity
100
AcDbBlockBegin
2
*PAPER_SPACE
0
ENDBLK
5
1D
100
AcDbEntity
100
AcDbBlockEnd
0
ENDSEC
0
SECTION
2
ENTITIES
0
POINT
5
100
100
AcDbEntity
8
0
100
AcDbPoint
10
0
20
0
30
0
0
LINE
5
101
100
AcDbEntity
8
0
100
AcDbLine
10
2.0000000298023224
20
0
30
0
11
2.0000000298023224
21
8.6499996837228554
31
0
0
LINE
5
102
100
AcDbEntity
8
0
100
AcDbLine
10
101.79999772459267
20
16.299999635666612
30
0
11
101.8499977234751
21
16.299999635666609
31
0
0
ARC
5
103
100
AcDbEntity
8
0
100
AcDbCircle
10
7.5000000298023206
20
8.6499996837228554
30
0
40
5.4999999999999982
210
0
220
-0
230
1
100
AcDbArc
50
89.999999999999915
51
180
0
ARC
5
104
100
AcDbEntity
8
0
100
AcDbCircle
10
7.4999999999999911
20
8.7999996356666177
30
0
40
7.4999999999999911
210
0
220
-0
230
1
100
AcDbArc
50
89.999999999999929
51
180
0
LINE
5
105
100
AcDbEntity
8
0
100
AcDbLine
10
2.0000000298023224
20
-2.2999999485909939
30
0
11
1.9999999552965164
21
-6.8999998457729816
31
0
0
LINE
5
106
100
AcDbEntity
8
0
100
AcDbLine
10
2.2999999485909939
20
-2.2999999485909939
30
0
11
2.0000000298023224
21
-2.2999999485909939
31
0
0
LINE
5
107
100
AcDbEntity
8
0
100
AcDbLine
10
2.2999999485909939
20
-2.2999999485909939
30
0
11
100.15795992022362
21
-2.2999999485909939
31
0
0
LINE
5
108
100
AcDbEntity
8
0
100
AcDbLine
10
101.79999772459269
20
3.1910755667838639
30
0
11
101.79999772459269
21
-8.6712084683090698
31
0
0
LINE
5
109
100
AcDbEntity
8
0
100
AcDbLine
10
101.79999772459269
20
3.1910755667838639
30
0
11
101.79999772459266
21
37.399999164044843
31
0
0
LINE
5
110
100
AcDbEntity
8
0
100
AcDbLine
10
99.800088657915964
20
16.299999635666587
30
0
11
99.800088657915964
21
34.199908346950636
31
0
0
LINE
5
111
100
AcDbEntity
8
0
100
AcDbLine
10
100.15795992022362
20
14.149999683722811
30
0
11
100.15795992022362
21
-6.8920989162949305e-15
31
0
0
LINE
5
112
100
AcDbEntity
8
0
100
AcDbLine
10
100.15795992022362
20
-2.2999999485909939
30
0
11
100.15795992022362
21
-6.3897861915673886
31
0
0
ARC
5
113
100
AcDbEntity
8
0
100
AcDbCircle
10
2.1499999519437551
20
-8.0499998200684786
30
0
40
1.1597413245520809
210
0
220
0
230
1
100
AcDbArc
50
-97.431407971172547
51
97.431407971172504
0
ARC
5
114
100
AcDbEntity
8
0
100
AcDbCircle
10
-2.3285473907291987
20
-42.385529447229437
30
0
40
33.466635631147611
210
0
220
-0
230
1
100
AcDbArc
50
82.568592028827865
51
85.300900305942605
0
ARC
5
115
100
AcDbEntity
8
0
100
AcDbCircle
10
0.44999999999999774
20
-8.5828986778129277
30
0
40
0.44999999999999774
210
0
220
0
230
1
100
AcDbArc
50
180
51
265.30090030594329
0
ARC
5
116
100
AcDbEntity
8
0
100
AcDbCircle
10
99.63752681794027
20
-8.0314167664144982
30
0
40
1.1417577336323963
210
0
220
-0
230
1
100
AcDbArc
50
89.286885801960125
51
277.39308104722579
0
ARC
5
117
100
AcDbEntity
8
0
100
AcDbCircle
10
95.673881108208647
20
22.515845858192023
30
0
40
31.94509750660113
210
0
220
0
230
1
100
AcDbArc
50
277.39308104722568
51
280.75898894429503
0
ARC
5
118
100
AcDbEntity
8
0
100
AcDbCircle
10
101.59999772481541
20
-8.6712084683090698
30
0
40
0.1999999997772785
210
-0
220
0
230
1
100
AcDbArc
50
-79.241011055703893
51
0
0
ARC
5
119
100
AcDbEntity
8
0
100
AcDbCircle
10
31.615536415586046
20
13.985193142574987
30
0
40
1.1063909939464902
210
0
220
0
230
1
100
AcDbArc
50
-188.56658532649101
51
8.5665853264910385
0
ARC
5
120
100
AcDbEntity
8
0
100
AcDbCircle
10
31.425503531053252
20
-0.013495259346860619
30
0
40
1.1745732697284659
210
0
220
-0
230
1
100
AcDbArc
50
0.65831433161998876
51
179.34168566838002
0
ARC
5
121
100
AcDbEntity
8
0
100
AcDbCircle
10
70.243581011144911
20
0.021413145228299166
30
0
40
1.0855251026336934
210
0
220
0
230
1
100
AcDbArc
50
-1.8428400590619547
51
181.13029392470878
0
ARC
5
122
100
AcDbEntity
8
0
100
AcDbCircle
10
70.310690765789388
20
13.944489098781057
30
0
40
1.0982871505739535
210
0
220
0
230
1
100
AcDbArc
50
-190.7847100322283
51
10.784710032228155
0
LINE
5
123
100
AcDbEntity
8
0
100
AcDbLine
10
30.521488959814231
20
14.149999683722854
30
0
11
7.5000000298023295
21
14.149999683722854
31
0
0
LINE
5
124
100
AcDbEntity
8
0
100
AcDbLine
10
100.15795992022362
20
14.149999683722811
30
0
11
71.389579112465142
21
14.149999683722854
31
0
0
LINE
5
125
100
AcDbEntity
8
0
100
AcDbLine
10
69.231802419113649
20
14.149999683722854
30
0
11
32.709583871357857
21
14.149999683722854
31
0
0
LINE
5
126
100
AcDbEntity
8
0
100
AcDbLine
10
71.328894894617946
20
-1.5764299587939234e-15
30
0
11
100.15795992022362
21
-6.8920989162949305e-15
31
0
0
LINE
5
127
100
AcDbEntity
8
0
100
AcDbLine
10
2.0000000298023224
20
0
30
0
11
30.25100779077329
21
-1.1102230246251565e-15
31
0
0
LINE
5
128
100
AcDbEntity
8
0
100
AcDbLine
10
32.599999271333218
20
0
30
0
11
69.158267127671877
21
-1.1102230246251565e-15
31
0
0
LINE
5
129
100
AcDbEntity
8
0
100
AcDbLine
10
31.251949241183688
20
16.299999635666609
30
0
11
31.251949241183688
21
37.680000408870391
31
0
0
LINE
5
130
100
AcDbEntity
8
0
100
AcDbLine
10
33.199999257922173
20
16.299999635666609
30
0
11
33.199999257922173
21
39.299999121576548
31
0
0
LINE
5
131
100
AcDbEntity
8
0
100
AcDbLine
10
31.251949241183688
20
37.680000408870391
30
0
11
25.00000037252903
21
39.000000581145287
31
0
0
LINE
5
132
100
AcDbEntity
8
0
100
AcDbLine
10
25.00000037252903
20
39.000000581145287
30
0
11
18.699999582022429
21
37.599999159574509
31
0
0
LINE
5
133
100
AcDbEntity
8
0
100
AcDbLine
10
18.699999582022429
20
37.599999159574509
30
0
11
18.699999582022429
21
32.000000476837158
31
0
0
LINE
5
134
100
AcDbEntity
8
0
100
AcDbLine
10
16.478043973412042
20
32.000000476837158
30
0
11
16.478043973412042
21
39.299999121576548
31
0
0
LINE
5
135
100
AcDbEntity
8
0
100
AcDbLine
10
16.478043973412042
20
39.299999121576548
30
0
11
24.999999441206455
21
41.099999081343412
31
0
0
LINE
5
136
100
AcDbEntity
8
0
100
AcDbLine
10
24.999999441206455
20
41.099999081343412
30
0
11
33.199999257922173
21
39.299999121576548
31
0
0
ARC
5
137
100
AcDbEntity
8
0
100
AcDbCircle
10
17.589021777717235
20
32.000000476837158
30
0
40
1.1109778043051932
210
0
220
0
230
1
100
AcDbArc
50
-180
51
0
0
LINE
5
138
100
AcDbEntity
8
0
100
AcDbLine
10
31.251949241183688
20
16.299999635666609
30
0
11
7.5
21
16.299999635666609
31
0
0
LINE
5
139
100
AcDbEntity
8
0
100
AcDbLine
10
68.599998466670513
20
16.299999635666609
30
0
11
68.599998466670513
21
39.309394956206852
31
0
0
LINE
5
140
100
AcDbEntity
8
0
100
AcDbLine
10
68.599998466670513
20
39.309394956206852
30
0
11
76.891880429755417
21
41.18261319051966
31
0
0
LINE
5
141
100
AcDbEntity
8
0
100
AcDbLine
10
76.891880429755417
20
41.18261319051966
30
0
11
85.337705230628643
21
39.3704522729413
31
0
0
LINE
5
142
100
AcDbEntity
8
0
100
AcDbLine
10
85.337705230628643
20
39.3704522729413
30
0
11
85.337705230628643
21
31.899999286979437
31
0
0
LINE
5
143
100
AcDbEntity
8
0
100
AcDbLine
10
83.199998140335083
20
31.899999286979437
30
0
11
83.199998140335083
21
37.599999159574509
31
0
0
LINE
5
144
100
AcDbEntity
8
0
100
AcDbLine
10
83.199998140335083
20
37.599999159574509
30
0
11
76.891880429755417
21
39.127510993610272
31
0
0
LINE
5
145
100
AcDbEntity
8
0
100
AcDbLine
10
76.891880429755417
20
39.127510993610272
30
0
11
70.615680594571387
21
37.709655309484759
31
0
0
LINE
5
146
100
AcDbEntity
8
0
100
AcDbLine
10
70.615680594571387
20
37.709655309484759
30
0
11
70.615680594571387
21
16.299999635666609
31
0
0
LINE
5
147
100
AcDbEntity
8
0
100
AcDbLine
10
99.899997767060995
20
16.299999635666609
30
0
11
70.615680594571387
21
16.299999635666609
31
0
0
LINE
5
148
100
AcDbEntity
8
0
100
AcDbLine
10
68.599998466670513
20
16.299999635666609
30
0
11
33.199999257922173
21
16.299999635666609
31
0
0
ARC
5
149
100
AcDbEntity
8
0
100
AcDbCircle
10
84.268851685481849
20
31.899999286979437
30
0
40
1.0688535451467729
210
0
220
0
230
1
100
AcDbArc
50
-180
51
0
0
ARC
5
150
100
AcDbEntity
8
0
100
AcDbCircle
10
99.832307274085892
20
36.640599198331799
30
0
40
2.109145328549094
210
0
220
-0
230
1
100
AcDbArc
50
21.103330500155277
51
90.875265683844106
0
LINE
5
151
100
AcDbEntity
8
0
100
AcDbLine
10
99.399997778236866
20
38.399999141693115
30
0
11
99.399997778236866
21
34.655371819448234
31
0
0
ARC
5
152
100
AcDbEntity
8
0
100
AcDbCircle
10
99.853700086760298
20
38.284373949045907
30
0
40
0.46820398325323148
210
0
220
0
230
1
100
AcDbArc
50
96.575041994396528
51
165.70261777236146
0
ARC
5
153
100
AcDbEntity
8
0
100
AcDbCircle
10
99.816664435590297
20
34.916665886218354
30
0
40
0.52334393723927264
210
0
220
0
230
1
100
AcDbArc
50
224.41697151592834
51
268.18497761146466
0
LINE
5
154
100
AcDbEntity
8
0
100
AcDbLine
10
99.800088657915964
20
34.199908346950636
30
0
11
99.800088657915964
21
34.393584515646246
31
0
0
ARC
5
155
100
AcDbEntity
8
0
100
AcDbCircle
10
99.549997778236985
20
34.655371819448277
30
0
40
0.15000000000011227
210
0
220
0
230
1
100
AcDbArc
50
180
51
224.41697151590935
0
ARC
5
156
100
AcDbEntity
8
0
100
AcDbCircle
10
99.657959920223632
20
-6.3897861915673975
30
0
40
0.4999999999999894
210
0
220
0
230
1
100
AcDbArc
50
-90.713114198043783
51
0
0
LINE
5
157
100
AcDbEntity
8
0
100
AcDbLine
10
1.1102230246251565e-15
20
8.7999996356666106
30
0
11
0
21
-8.5828986778129277
31
0
0
ENDSEC
0
SECTION
2
OBJECTS
0
DICTIONARY
5
C
100
AcDbDictionary
3
ACAD_GROUP
350
D
3
ACAD_MLINESTYLE
350
17
0
DICTIONARY
5
D
100
AcDbDictionary
0
DICTIONARY
5
1A
330
C
100
AcDbDictionary
0
DICTIONARY
5
17
100
AcDbDictionary
0
ENDSEC
0
EOF
